<svg xmlns="http://www.w3.org/2000/svg" width="500" height="500" style="width:100%;height:100%;transform:translate3d(0,0,0);content-visibility:visible" viewBox="0 0 500 500"><defs><clipPath id="g"><path d="M0 0h500v500H0z"/></clipPath><clipPath id="o"><path d="M0 0h500v500H0z"/></clipPath><clipPath id="n"><path d="M0 0h500v500H0z"/></clipPath><clipPath id="l"><path d="M0 0h500v500H0z"/></clipPath><clipPath id="j"><path d="M0 0h500v500H0z"/></clipPath><clipPath id="h"><path d="M0 0h500v500H0z"/></clipPath><filter id="a" width="100%" height="100%" x="0%" y="0%" filterUnits="objectBoundingBox"><feComponentTransfer in="SourceGraphic"><feFuncA tableValues="1.0 0.0" type="table"/></feComponentTransfer></filter><filter id="c" width="100%" height="100%" x="0%" y="0%" filterUnits="objectBoundingBox"><feComponentTransfer in="SourceGraphic"><feFuncA tableValues="1.0 0.0" type="table"/></feComponentTransfer></filter><filter id="e" width="100%" height="100%" x="0%" y="0%" filterUnits="objectBoundingBox"><feComponentTransfer in="SourceGraphic"><feFuncA tableValues="1.0 0.0" type="table"/></feComponentTransfer></filter><mask id="m" mask-type="alpha"><g filter="url(#a)"><path fill="#fff" d="M0 0h500v500H0z" opacity="0"/><use xmlns:ns1="http://www.w3.org/1999/xlink" ns1:href="#b"/></g></mask><mask id="k" mask-type="alpha"><g filter="url(#c)"><path fill="#fff" d="M0 0h500v500H0z" opacity="0"/><use xmlns:ns2="http://www.w3.org/1999/xlink" ns2:href="#d"/></g></mask><mask id="i" mask-type="alpha"><g filter="url(#e)"><path fill="#fff" d="M0 0h500v500H0z" opacity="0"/><use xmlns:ns3="http://www.w3.org/1999/xlink" ns3:href="#f"/></g></mask><g id="b" class="primary design" style="display:none"><path/><path fill-opacity="0" stroke-linecap="round" stroke-linejoin="round"/></g><g id="d" class="primary design" style="display:none"><path/><path fill-opacity="0" stroke-linecap="round" stroke-linejoin="round"/></g><g id="f" class="primary design" style="display:block"><path fill="#FFF" d="M397.103 421.873H102.891c-12.933 0-21.362-6.329-25.772-23.481 0 0-8.12-34.143-12.15-53.812-2.632-12.842 14.451-27.081 28.518-27.081H406.48c14.067 0 28.987 13.987 28.493 27.081-.487 12.919-11.746 54.568-11.746 54.568-3.405 14.206-13.191 22.725-26.124 22.725z"/><path fill-opacity="0" stroke="#121330" stroke-linecap="round" stroke-linejoin="round" stroke-width="114" d="M397.103 421.873H102.891c-12.933 0-21.362-6.329-25.772-23.481 0 0-8.12-34.143-12.15-53.812-2.632-12.842 14.451-27.081 28.518-27.081H406.48c14.067 0 28.987 13.987 28.493 27.081-.487 12.919-11.746 54.568-11.746 54.568-3.405 14.206-13.191 22.725-26.124 22.725z"/></g></defs><g clip-path="url(#g)"><g clip-path="url(#h)" opacity="0" style="display:block"><g class="primary design" style="display:none"><path/><path fill="none"/></g><path fill="none" stroke="#121330" stroke-linecap="round" stroke-linejoin="round" stroke-width="31.3" d="M147.106 119.792h-294.212c-12.933 0-21.362-6.329-25.772-23.481 0 0-8.12-34.143-12.15-53.812-2.632-12.842 14.451-27.081 28.518-27.081h312.993c14.067 0 28.987 13.987 28.493 27.081-.487 12.919-11.746 54.568-11.746 54.568-3.405 14.206-13.191 22.725-26.124 22.725z" class="primary design" opacity="1" style="display:block" transform="translate(249.997 302.081)"/><path fill="none" stroke="#121330" stroke-linecap="round" stroke-linejoin="round" stroke-width="31.3" d="M-67.708 7.542v-28.376c0-37.394 30.314-67.708 67.708-67.708 0 0 0 0 0 0 37.394 0 67.708 30.314 67.708 67.708V7.542M-67.107 200.704-74 176.8c-11.284-40.284 23.002 32.031 74.337 32.031 0 0 0 0 0 0 67.665 0 84.004-72.211 73.61-31.688l-5.997 24.144" class="primary design" opacity="1" style="display:block" transform="translate(249.998 166.669)"/><g mask="url(#i)" style="display:block"><path fill="#121330" d="m333.978 146.647-.078 33.332h-41.664l.078-33.332c0-23.748-18.749-42.914-41.664-42.914-22.915 0-41.664 19.166-41.664 42.914l-.078 33.332h-41.664l.078-33.332c0-46.664 37.289-84.578 83.328-84.578s83.328 37.914 83.328 84.578zm91.51 277.333c-6.875 8.124-17.081 12.916-27.914 12.916 0 0-103.122-.105-144.183-.105-56.988 0-149.965.105-149.965.105-10.833 0-21.039-4.792-27.914-12.916-6.875-8.333-9.792-19.166-8.125-29.79l16.353-93.585 18.228-104.318c2.916-17.499 18.124-30.207 35.831-30.207h225.402c17.707 0 32.915 12.708 35.831 30.207a65311841.672 65311841.672 0 0 0 34.581 197.903c1.667 10.624-1.25 21.457-8.125 29.79z" class="primary design"/></g><path fill="#121330" d="M171.488 128.01c-6.875 4.261-13.581 7.398-24.414 7.398 0 0-103.122-.055-144.183-.055-56.988 0-149.965.055-149.965.055-10.833 0-19.676-3.145-25.664-7.773-5.887-5.247-8.762-9.498-11.5-14.873 0 0-6.012-15.75-9.772-34.645-3.782-19.005-6.436-29.916-6.436-29.916C-205.25 29.512-187.75.495-161.115.495l51.115.03v.416c0 .076 12.357.138 27.459.138s27.459-.062 27.459-.138V.525H54.754v.416c0 .076 12.357.138 27.459.138s27.459-.062 27.459-.138V.525l50.615.057c19.213 0 41.463 17.431 39.581 48.297 0 0-.962 9.791-6.43 31.12-4.938 19.264-9.575 32.513-9.575 32.513-3.113 6.625-5.5 11.128-12.375 15.498z" class="primary design" opacity="1" style="display:block" transform="translate(250.5 301.488)"/></g><g clip-path="url(#j)" opacity="0" style="display:block"><g mask="url(#k)" style="display:none"><path class="primary design"/></g><path class="primary design" style="display:none"/><path fill="#121330" d="M83.328 32.498V52.08H41.664V32.498C41.664 8.75 22.915-10.416 0-10.416c-22.915 0-41.664 19.166-41.664 42.914V52.08h-41.664V32.498C-83.328-14.166-46.039-52.08 0-52.08s83.328 37.914 83.328 84.578z" class="primary design" opacity="1" style="display:block" transform="translate(250.5 114)"/><path fill="#121330" d="M174.988 122.492c-6.875 8.124-17.081 12.916-27.914 12.916 0 0-103.122-.105-144.183-.105-56.988 0-149.965.105-149.965.105-10.833 0-21.039-4.792-27.914-12.916-6.875-8.333-9.792-19.166-8.125-29.79L-166.76-.883l18.228-104.318c2.916-17.499 18.124-30.207 35.831-30.207h29.373v62.496c0 11.458 9.374 20.832 20.832 20.832s20.832-9.374 20.832-20.832v-62.496h83.328v62.496c0 11.458 9.374 20.832 20.832 20.832s20.832-9.374 20.832-20.832v-62.496h29.373c17.707 0 32.915 12.708 35.831 30.207a65311841.672 65311841.672 0 0 0 34.581 197.903c1.667 10.624-1.25 21.457-8.125 29.79z" class="primary design" opacity="1" style="display:block" transform="translate(250.5 301.488)"/></g><g clip-path="url(#l)" opacity="0" style="display:block"><g mask="url(#m)" style="display:none"><path class="primary design"/></g><g class="primary design" style="display:none"><path/><path fill="none"/></g><path class="primary design" style="display:none"/><path fill="#121330" d="M174.988 122.492c-6.875 8.124-17.081 12.916-27.914 12.916 0 0-103.122-.105-144.183-.105-56.988 0-149.965.105-149.965.105-10.833 0-21.039-4.792-27.914-12.916-6.875-8.333-9.792-19.166-8.125-29.79L-166.76-.883l18.228-104.318c2.916-17.499 18.124-30.207 35.831-30.207h29.373v62.496c0 11.458 9.374 20.832 20.832 20.832s20.832-9.374 20.832-20.832v-62.496h83.328v62.496c0 11.458 9.374 20.832 20.832 20.832s20.832-9.374 20.832-20.832v-62.496h29.373c17.707 0 32.915 12.708 35.831 30.207a65311841.672 65311841.672 0 0 0 34.581 197.903c1.667 10.624-1.25 21.457-8.125 29.79z" class="primary design" opacity="1" style="display:block" transform="translate(250.5 301.488)"/><path fill="#121330" d="M83.328 32.498V52.08H41.664V32.498C41.664 8.75 22.915-10.416 0-10.416c-22.915 0-41.664 19.166-41.664 42.914V52.08h-41.664V32.498C-83.328-14.166-46.039-52.08 0-52.08s83.328 37.914 83.328 84.578z" class="primary design" opacity="1" style="display:block" transform="translate(250.5 114)"/><path class="primary design" style="display:none"/><path class="primary design" style="display:none"/></g><g fill="#121330" clip-path="url(#n)" style="display:block"><path d="M174.988 122.492c-6.875 8.124-17.081 12.916-27.914 12.916 0 0-103.122-.105-144.183-.105-56.988 0-149.965.105-149.965.105-10.833 0-21.039-4.792-27.914-12.916-6.875-8.333-9.792-19.166-8.125-29.79L-166.76-.883l18.228-104.318c2.916-17.499 18.124-30.207 35.831-30.207h29.373v62.496c0 11.458 9.374 20.832 20.832 20.832s20.832-9.374 20.832-20.832v-62.496h83.328v62.496c0 11.458 9.374 20.832 20.832 20.832s20.832-9.374 20.832-20.832v-62.496h29.373c17.707 0 32.915 12.708 35.831 30.207a65311841.672 65311841.672 0 0 0 34.581 197.903c1.667 10.624-1.25 21.457-8.125 29.79z" class="primary design" style="display:block" transform="translate(250.5 301.488)"/><path d="M83.328 32.498V52.08H41.664V32.498C41.664 8.75 22.915-10.416 0-10.416c-22.915 0-41.664 19.166-41.664 42.914V52.08h-41.664V32.498C-83.328-14.166-46.039-52.08 0-52.08s83.328 37.914 83.328 84.578z" class="primary design" style="display:block" transform="translate(250.5 114)"/></g><g clip-path="url(#o)" opacity="0" style="display:block"><path class="primary design" style="display:none"/><path class="primary design" style="display:none"/></g><g class="com" style="display:none"><path/><path/><path/><path/><path/><path/><path/><path/><path/><path/><path/><path/></g></g></svg>